<?xml version="1.0" encoding="UTF-8"?><svg xmlns="http://www.w3.org/2000/svg" xmlns:xlink="http://www.w3.org/1999/xlink" data-name="Layer 2" height="274.0" preserveAspectRatio="xMidYMid meet" version="1.0" viewBox="-0.5 -0.0 448.6 274.0" width="448.6" zoomAndPan="magnify"><g id="change1_1"><path d="M367.62,136v0h0a.37.37,0,0,0-.13-.15l0,0a.33.33,0,0,0-.19-.06H151.7a.4.4,0,0,0-.28.12l-50,55.45a.35.35,0,0,0-.06.4.36.36,0,0,0,.34.22H306.86v80.74a.38.38,0,1,0,.75,0V191.76L366.89,137v78.4a.38.38,0,0,0,.38.38.37.37,0,0,0,.37-.38V136.16A.37.37,0,0,0,367.62,136Z" fill="inherit"/></g><g id="change2_1"><path d="M68.29,269.89h-9.2l-2.6-9.5h9.2Zm-57.78,0h8.92l.22-9.5H10.74Z" fill="#fff"/></g><g id="change1_2"><path d="M78.83,274H57.43a1,1,0,0,1-1-1.29L58,266.62s4.86,3.69,8.94,0l12.12,6.31A.58.58,0,0,1,78.83,274Zm-47-1.09L19.7,266.62c-4.08,3.69-8.95,0-8.95,0l-1.6,6.11a1,1,0,0,0,1,1.29H31.55A.58.58,0,0,0,31.82,272.93Z" fill="inherit"/></g><g id="change1_3"><path d="M68.29,270.26h-9.2a.37.37,0,0,1-.36-.27l-2.6-9.5a.39.39,0,0,1,.06-.33.4.4,0,0,1,.3-.15h9.2a.38.38,0,0,1,.36.28l2.6,9.5a.37.37,0,0,1-.36.47Zm-8.92-.75H67.8l-2.4-8.75H57Zm-39.95.75H10.51a.39.39,0,0,1-.27-.11.34.34,0,0,1-.1-.27l.23-9.5a.38.38,0,0,1,.37-.37h8.92a.34.34,0,0,1,.26.12.39.39,0,0,1,.11.27l-.23,9.5A.38.38,0,0,1,19.42,270.26Zm-8.53-.75h8.17l.21-8.75H11.11Z" fill="inherit"/></g><g id="change2_2"><path d="M306.86,184.53H101.3l50-55.44H366.9Z" fill="#fff"/></g><g id="change1_4"><path d="M306.86,184.9H101.3a.37.37,0,0,1-.35-.22.37.37,0,0,1,.07-.4l50-55.45a.4.4,0,0,1,.28-.12H366.9a.37.37,0,0,1,.25.65l-60,55.44A.35.35,0,0,1,306.86,184.9Zm-204.72-.75H306.71l59.23-54.69H151.49Z" fill="inherit"/></g><g id="change2_3"><path d="M149,159.39s3.45-5.19,7.08-5.77,73.81-.26,75.35,0,.6,5.71.6,5.71l-13.44,12.94L156,171.2Z" fill="#fff"/></g><g id="change1_5"><path d="M218.56,172.65h0L156,171.57a.38.38,0,0,1-.32-.18l-7.06-11.81a.38.38,0,0,1,0-.4c.15-.22,3.59-5.33,7.33-5.93,2.92-.48,72.76-.47,75.47,0,1.77.31,1.14,4.78.91,6.15a.31.31,0,0,1-.11.2l-13.44,12.94A.37.37,0,0,1,218.56,172.65Zm-62.31-1.82,62.16,1.07,13.24-12.74c.4-2.42.37-5-.32-5.16-.37-.07-70.64-.75-75.22,0-3,.49-6,4.48-6.69,5.41Z" fill="inherit"/></g><g id="change3_1"><path d="M140.53,191s36.38-.56,43.07,1.67,7.26,7.82,5.86,13.68-15.9,54.42-19.81,55.81-12.56.56-13.39-3.91l9.21-47-18-.42-3.35,45.3s-7,5.86-15.21-.28l-.65-45.9s-8.7.46-10.79.18S133,190.06,133,190.06Z" fill="#db868e"/></g><g id="change2_4"><path d="M141.74,256.9v3.21s12.7,5,11.73,7-22.89-.7-23.17-2,.42-8.23.42-8.23C137.14,259.69,141.74,256.9,141.74,256.9Z" fill="#fff"/></g><g id="change1_6"><path d="M149.22,268.16a94.1,94.1,0,0,1-10.1-.75c-5.93-.73-9-1.47-9.18-2.2-.29-1.27.34-7.63.41-8.35a.36.36,0,0,1,.18-.28.37.37,0,0,1,.34,0c6.15,2.67,10.63.05,10.68,0a.39.39,0,0,1,.38,0,.37.37,0,0,1,.19.33v3c1.88.76,10.87,4.46,11.7,6.62a1,1,0,0,1,0,.78C153.46,267.94,151.57,268.16,149.22,268.16ZM130.66,265c1.14.91,15.93,2.91,21.09,2.31,1.22-.14,1.38-.38,1.38-.38a.22.22,0,0,0,0-.18c-.57-1.49-7.2-4.58-11.51-6.28a.38.38,0,0,1-.24-.35v-2.6a13.11,13.11,0,0,1-10.33-.07A58.32,58.32,0,0,0,130.66,265Zm0,.06h0Zm0-.09Z" fill="inherit"/></g><g id="change1_7"><path d="M36.22,103.15c-8.49.47-13.39-11.42-8.39-13.27s2.41-5.94,6.31-11.31,13.72-1.67,15.57,2.22S49.09,90,49.09,90,44.71,102.67,36.22,103.15Z" fill="inherit"/></g><g id="change1_8"><path d="M222.67,157.23H157.09a.38.38,0,0,1,0-.75h65.58a.38.38,0,1,1,0,.75Zm-2,3.53a.38.38,0,0,0-.38-.38H154.72a.37.37,0,0,0-.37.38.36.36,0,0,0,.37.37H220.3A.37.37,0,0,0,220.68,160.76Zm-3.21,4.33a.38.38,0,0,0-.38-.38H151.51a.38.38,0,0,0,0,.75h65.58A.38.38,0,0,0,217.47,165.09Z" fill="inherit"/></g><g id="change1_9"><path d="M385.71,261.41l.62-103.61s-.64-6.05-5.92-6.08c-5.64,0-6,6-6,6a.9.9,0,0,1-.92.68.84.84,0,0,1-.85-.69s.46-7.84,7.77-7.8c6.84,0,7.68,7.89,7.68,7.89l.35,103.62a.65.65,0,0,1,.46.61l.37,4.76-4.54,0s.45-4.63.59-5.09C385.37,261.55,385.51,261.47,385.71,261.41Z" fill="inherit"/></g><g id="change4_1"><path d="M385.05,146.12l-.59,2.84c-.54,2.55-2.83,3.27-6.35,4.21s-3.13,2.7-5.62,3.42-2-2.72-2-2.72a10,10,0,0,1,9.56-8.17l.32-1.56Z" fill="#f7ead0"/></g><g id="change1_10"><path d="M442,267.09c-.3,0-11.32,0-11.32,0L416.42,267h0l-7.16,0L395,266.83a4.86,4.86,0,0,1,4.38-4.16c4.11-.69,11-3.54,13.54-9,2.65-5.7,9.13,1.28,9.13,1.28a65.55,65.55,0,0,1,0,7.53c4.15-1,10-3.79,12.26-8.69,2.65-5.7,9.13,1.29,9.13,1.29S444.19,266.94,442,267.09Z" fill="inherit"/></g><g id="change2_5"><path d="M422.93,226.51c.33,5,1,11.43.71,17.22-.4,8.1-.7,14.92-.7,14.92-5.35,1.79-15.13-.47-15.13-.47s-3.36-20.49-6.12-36.84c-1.24-7.33-2.27-13.67-2.65-16.66-1.23-9.68,1.73-61.05,1.73-61.05s14.51-9.17,20.45-4.36,9.58,9.49-.35,61.73C420.12,205,422.22,215.31,422.93,226.51Z" fill="#fff"/></g><g id="change1_11"><path d="M417.63,259.72a49.75,49.75,0,0,1-9.91-1.18.35.35,0,0,1-.28-.3c0-.21-3.39-20.68-6.12-36.84-1.42-8.38-2.31-14-2.65-16.68-1.22-9.59,1.61-59,1.73-61.11a.4.4,0,0,1,.17-.3c.6-.38,14.8-9.26,20.88-4.33,5.62,4.54,10.05,8.13-.21,62.09-.43,2.26.1,6.69.77,12.3.47,4,1,8.47,1.3,13.12h0c.07,1.06.15,2.19.24,3.36a115.89,115.89,0,0,1,.47,13.9c-.41,8.09-.7,14.92-.7,14.92a.38.38,0,0,1-.26.34A17.81,17.81,0,0,1,417.63,259.72Zm-9.49-1.85c1.51.32,9.67,1.95,14.44.51.06-1.33.33-7.5.69-14.67a114.37,114.37,0,0,0-.47-13.8c-.09-1.18-.17-2.31-.24-3.37h0c-.3-4.63-.83-9.12-1.3-13.08-.67-5.67-1.21-10.16-.75-12.53,10.17-53.52,5.89-57,.47-61.37s-18.24,3.31-19.84,4.29c-.2,3.48-2.9,51.55-1.73,60.78.34,2.68,1.23,8.28,2.65,16.64C404.63,236.47,407.74,255.47,408.14,257.87Zm14.8.78h0Z" fill="inherit"/></g><g id="change2_6"><path d="M433.87,138.83c6.29,4.34,10.29,8.73,4.4,61.58-.44,4,2.44,14.17,4,25.28,1.69,11.89,1.9,32.11,1.9,32.11C439,260,429.08,259,429.08,259s-10.32-43.73-12.29-53.28-3-61-3-61S427.58,134.49,433.87,138.83Z" fill="#fff"/></g><g id="change1_12"><path d="M434.11,259.62c-2.75,0-4.88-.2-5.07-.22a.37.37,0,0,1-.33-.29c-.1-.43-10.34-43.83-12.29-53.28s-2.93-59-3-61.07a.39.39,0,0,1,.15-.31c.57-.42,14-10.37,20.48-5.93,5.95,4.1,10.64,7.34,4.57,61.93-.26,2.29.61,6.67,1.7,12.22.78,3.91,1.66,8.35,2.31,13,1.67,11.78,1.9,32,1.9,32.17a.38.38,0,0,1-.23.35C441.5,259.34,437.37,259.62,434.11,259.62Zm-4.73-.94c1.58.13,9.8.69,14.43-1.13,0-2.38-.33-20.8-1.89-31.81-.65-4.59-1.53-9-2.3-12.93-1.11-5.61-2-10-1.72-12.45,6-54.14,1.5-57.26-4.24-61.22s-17.94,4.7-19.46,5.8c.07,3.49,1.07,51.63,2.95,60.74S428.52,255,429.38,258.68Z" fill="inherit"/></g><g id="change4_2"><path d="M438.27,146.88c2,1.62,2.9,5.32,2.19,8.89s-.2,2.68-.65,5.22-3.31.57-3.31.57a10,10,0,0,1-3.1-12.19Z" fill="#f7ead0"/></g><g id="change4_3"><path d="M416.92,60.35a37.19,37.19,0,0,0,7.59,14.44L413.83,90.92,408,76.74c.83-5.62-3.1-11.67-3.1-11.67Z" fill="#f7ead0"/></g><g id="change4_4"><path d="M398.71,52.88c.81-2.87,3.78-6.56,12.66-5.88,10.8.83,6.86,6.57,6.55,15.24s-14.75,8-14.75,8C397.81,69.7,397.9,55.74,398.71,52.88Z" fill="#f7ead0"/></g><g id="change3_2"><path d="M448.08,120.25c0,4.3-4.77,28-7.36,30.55a9.73,9.73,0,0,1-3.89,0,7.83,7.83,0,0,1-3.74-1.85s0-.42.06-1.16c-2.25.17-4.81.34-7.65.51l-3.21.17c-15.66.78-21.86-1.79-21.86-1.79s-.42-.34-.27-2.18c.73-9.46,2.76-12.24,2.53-14-.17-1.28-1.23-5.43-2.61-10.51a51.67,51.67,0,0,1-2.08,7c-.2.48-.47,1-.8,1.68-3.12,6-11.42,17.87-11.42,17.87a10.27,10.27,0,0,1-3.83-.35,5.1,5.1,0,0,1-2.12-2c.74-1.18,3.8-15.14,7.67-23,1.66-3.34,4.26-34.44,7.46-38.61,2.66-3.48,13.08-5.83,13.08-5.83l0,.06A4.77,4.77,0,0,0,413.46,80a18.62,18.62,0,0,0,10.65-5.24h.4s10.1.29,15.39,7.26C444,87.39,448.11,116,448.08,120.25Z" fill="#db868e"/></g><g id="change2_7"><path d="M408.11,65.18c3.18.12,9.85-3.8,9.85-3.8-.08,13.68-12.75,14.86-17.52,13.26s-1.88-12.74-1.88-12.74c.32,2.66,1.39,2.74,1.39,2.74C402.9,63.22,404.94,65.07,408.11,65.18Zm13.35-15.69c-2.5-6.05-14.52-7.53-19.55-.87,0,0,6-3.84,14.08-.25a2.55,2.55,0,0,1,1.33,1.36,3.68,3.68,0,0,1-.1,1,7.1,7.1,0,0,1-2.4,3.5c-4.4,4,3.14,7.18,3.14,7.18S425.54,59.37,421.46,49.49Z" fill="#fff"/></g><g id="change3_3"><path d="M53.41,262.45,30.19,202.61l-6.73,59.95H8.54l1.15-59.91L5.32,161.57,14,161v0h.56L28.05,160c0,.06,0,.39,0,.95H38.26l13.09,33.6,17.21,67.94Z" fill="#db868e"/></g><g id="change5_1"><path d="M101.14,108.65l-1.68,4.08-5.06,5.73-8.28,1.91c-.58,1.07-3.62,6.64-7.08,12.15C71.19,145,68.91,145,68.16,145c-3.27,0-9.1-6.11-13.19-10.71a56.36,56.36,0,0,1-4.64-5.57l-.23-.37,11.38-7.95,7.18,10.14,11.72-14.44A8.55,8.55,0,0,1,86.14,113l5.44-.56,2.83-3.23c.22-.46,1.6-3,3.74-2.32l.41.14L98,108.9a2.55,2.55,0,0,1,2.75-.45Z" fill="#c59a94"/></g><g id="change5_2"><path d="M49,105.14c-1.25,1.54-2.25,1.85-4.79,1.64l-1.25,8-12.21-2.56,4.79-10.61c-.46-.94-2-4.34-.86-6a2.51,2.51,0,0,1,2.59-.8,18.43,18.43,0,0,1,.54-4,6.19,6.19,0,0,1,10.64-2.37h0l.49,1.39C49.06,90.31,52.6,100.64,49,105.14Z" fill="#c59a94"/></g><g id="change2_8"><path d="M67,127.63,56.54,138.5l-4.3-4.5L41.47,165.88l-.35,0c-.14,0-14.3-.9-18.19,1.16a19.9,19.9,0,0,1-9.39,2.42,19.21,19.21,0,0,1-5.3-.75,18.42,18.42,0,0,1-6.06-2.93l-.28-.22,15.89-35.8-11.74.73,7.25-16.81a9.56,9.56,0,0,1,7.92-5.57l12.41-.87.15.15s3.8,3.76,7,3.2a4.48,4.48,0,0,0,3.17-2.86l.18-.39,10.81,4.4a7.91,7.91,0,0,1,3.71,3.07Z" fill="#fff"/></g><g id="change1_13"><path d="M13.54,169.81a19.51,19.51,0,0,1-5.4-.76,18.9,18.9,0,0,1-6.2-3l-.27-.22a.36.36,0,0,1-.11-.44l15.63-35.24-11.12.69a.36.36,0,0,1-.33-.16.38.38,0,0,1,0-.36L13,113.51a10,10,0,0,1,8.23-5.8l12.41-.86a.38.38,0,0,1,.3.11l.14.15s3.67,3.61,6.67,3.09a4.15,4.15,0,0,0,2.89-2.64l.19-.4a.38.38,0,0,1,.48-.19l10.8,4.4A8.39,8.39,0,0,1,59,114.59l8.31,12.83a.39.39,0,0,1,0,.47L56.81,138.76a.39.39,0,0,1-.27.11h0a.38.38,0,0,1-.28-.12L52.4,134.7,41.83,166a.36.36,0,0,1-.38.26l-.36,0c-.14,0-14.23-.88-18,1.11A20.2,20.2,0,0,1,13.54,169.81ZM2.36,165.43l.05,0a18.43,18.43,0,0,0,5.94,2.86,19.12,19.12,0,0,0,14.4-1.64c4-2.12,18.25-1.21,18.39-1.2h.07l10.67-31.61a.39.39,0,0,1,.28-.25.36.36,0,0,1,.35.11l4,4.21,9.94-10.37L58.33,115h0a7.65,7.65,0,0,0-3.54-2.94L44.31,107.8l0,.08a4.84,4.84,0,0,1-3.44,3.06c-3.4.6-7.29-3.26-7.33-3.3l0,0-12.24.85a9.15,9.15,0,0,0-7.6,5.36l-7,16.23,11.13-.68a.33.33,0,0,1,.33.16.36.36,0,0,1,0,.36Z" fill="inherit"/></g><g id="change5_3"><path d="M44.35,145.06l0,.1-4,3.34a6,6,0,0,1-3,1.34l-5.94.87a6.08,6.08,0,0,1-2.68-.21l-3.11-1-20-1c-2.21-.11-4.4-.63-5.24-2.93s.28-4.7,1.15-6.62,1.7-3.58,2.62-5.62c1.31-2.91,2.06-4.08,3.37-7l11.49,2.49-4,10.91,11.44,2.61,2.71-2.26A9.18,9.18,0,0,1,34.43,138a2.1,2.1,0,0,1,.54.15,1.1,1.1,0,0,1,.42,1.63,5.65,5.65,0,0,1-1.76,1.75L32,143.25h4.58L41.14,140l.18,0a2.31,2.31,0,0,1,1.46.79,1.27,1.27,0,0,1,.23.62,1.78,1.78,0,0,1,.93.8,1.55,1.55,0,0,1,.12,1.12,1.24,1.24,0,0,1,.31.39A1.49,1.49,0,0,1,44.35,145.06Z" fill="#c59a94"/></g><g id="change5_4"><path d="M93.47,136.34a17.28,17.28,0,0,1,7.25-5.77,29.55,29.55,0,0,0,6.51-3.16h11s-.19,2.42,3.35,3.16,7.81,1.31,13.21,8.19,20.28,24.56,20.28,24.56l19.35-3.82a20,20,0,0,1,2.65,11.59s-19.77,8.23-25.72,7.86-15.26-11.35-15.26-11.35,5.21,21.21,4.46,23.44-9.3,1.67-16.93,2.23-21.2-1.11-21.2-1.11Z" fill="#c59a94"/></g><g id="change2_9"><path d="M100,211s-11.91-61-11.91-65.68,2.23-9.11,14.14-10.42,25.12-1.86,29,6.89,1.49,64.93,1.49,64.93,30.33-3.35,32.93,4.28C165.65,211,100,211.88,100,211Z" fill="#fff"/></g><g id="change1_14"><path d="M166,210.91a.43.43,0,0,0,0,0v0s0,0,0,0l0,0c-2.67-7.32-29-4.91-32.86-4.51.24-5.64,2.22-56.25-1.53-64.67-3.87-8.64-16.42-8.52-29.41-7.1-12.83,1.4-14.48,6.5-14.48,10.79,0,4.61,11.29,62.5,11.91,65.68l-8.92,56.5a.36.36,0,0,0,.31.42h.06a.38.38,0,0,0,.37-.32l8.87-56.19c1.06.14,3.53.23,6.95.29l1.85,54a.37.37,0,0,0,.37.36h0a.38.38,0,0,0,.36-.39l-1.85-54c3,.05,6.74.07,10.83.07s8.84,0,13.56-.06L138.49,269a.38.38,0,0,0,.37.34h0a.38.38,0,0,0,.33-.42l-6.1-57.27c11.8-.08,24.11-.24,32.18-.35l5.36,55.84a.38.38,0,0,0,.38.34h0a.36.36,0,0,0,.34-.4Zm-65.71-.23c-.75-3.83-11.87-61-11.87-65.41,0-4,1.57-8.71,13.81-10,12.7-1.4,25-1.55,28.64,6.66,3.83,8.56,1.48,64.2,1.46,64.76h0v4.25C116.06,211,102.07,211,100.31,210.68Zm32.79.24V207a138.09,138.09,0,0,1,15.1-.69c9.6.14,15.41,1.61,16.88,4.26C155.33,210.72,143.76,210.85,133.1,210.92Z" fill="inherit"/></g><g id="change1_15"><path d="M108.42,123.13s-4.65-2-6-8.93-3.54-10.23-.75-12.46,4.28-3.91,6.14-4.28,1.86-3.16,5.77-3.16,5,.55,6.51,0,1.67-1.12,3.72.55.56,8,.56,8l-3.35,12.28-6.14,10.23Z" fill="inherit"/></g><g id="change2_10"><path d="M116.61,115.88s-3.91.37-3.91-2.61S117,112,117,112l.18-5c2.79.37,7.26-4.1,7.26-4.1a27.48,27.48,0,0,1,2,8.93c-.38,9.31-9.12,11.17-9.12,11.17L117,127.6l-8.75-.19.19-4.28C117,125,116.61,115.88,116.61,115.88Z" fill="#fff"/></g><g id="change1_16"><path d="M117,128h0l-8.74-.18a.42.42,0,0,1-.27-.12.36.36,0,0,1-.1-.28l.18-4.27a.4.4,0,0,1,.15-.29.38.38,0,0,1,.31-.06c2.34.5,4.19.21,5.5-.89,1.93-1.62,2.2-4.57,2.23-5.61h0a4.66,4.66,0,0,1-3-1,2.65,2.65,0,0,1-.85-2,2,2,0,0,1,.81-1.75c1-.68,2.67-.32,3.49-.07l.17-4.52a.37.37,0,0,1,.13-.27.39.39,0,0,1,.29-.09c2.15.3,5.74-2.78,6.94-4a.38.38,0,0,1,.33-.11.36.36,0,0,1,.27.21c.07.12,1.53,3.1,2.09,9.06-.34,8.58-7.62,11.07-9.14,11.49l-.35,4.39A.37.37,0,0,1,117,128Zm-8.36-.93,8,.17.35-4.29a.36.36,0,0,1,.29-.34c.35-.07,8.47-1.92,8.82-10.81a30.43,30.43,0,0,0-1.8-8.27c-1.12,1-4.33,3.82-6.77,3.84l-.17,4.64a.36.36,0,0,1-.17.3.37.37,0,0,1-.34,0c-.63-.25-2.45-.76-3.29-.18a1.26,1.26,0,0,0-.48,1.13,1.93,1.93,0,0,0,.6,1.5,4.44,4.44,0,0,0,2.9.73.45.45,0,0,1,.28.09.37.37,0,0,1,.13.27c0,.18.15,4.37-2.49,6.59a6.62,6.62,0,0,1-5.71,1.13Z" fill="inherit"/></g><g id="change2_11"><path d="M175.09,160.48s3-.74,3.48-3.32,2.3-6.4,3.6-6.33.83,1.82.83,1.82,6.07-3.68,8.39-3.36.38,1.41.38,1.41,2.3-1.08,2.91-.3-1.09,2.92-1.09,2.92,3-1.61,3.47-.37-1,3.58-2.75,4.23-3.15,1.32-4.07,2.94-3.15,3.09-5.07,4-7.95,4-7.95,4Z" fill="#fff"/></g><g id="change1_17"><path d="M276,60.63l-8,54.2a7.36,7.36,0,0,1-7.24,6.26H160.06a7.32,7.32,0,0,1-7.21-8.59l9.56-54.21a7.31,7.31,0,0,1,7.21-6h99.11A7.32,7.32,0,0,1,276,60.63Z" fill="inherit"/></g><g id="change2_12"><path d="M223.14,117.18l-5.21,20.28h16.45a2,2,0,0,1,2,2.6H193.82a3.34,3.34,0,0,1-3.23-4.21l5-18.86C195.88,116.71,223.14,117.18,223.14,117.18Z" fill="#fff"/></g><g id="change1_18"><path d="M236.35,140.44H193.82a3.73,3.73,0,0,1-3.6-4.68l5-18.86a.32.32,0,0,1,.1-.17c.15-.15.39-.39,27.81.07a.41.41,0,0,1,.29.15.37.37,0,0,1,.06.32l-5.09,19.81h16a2.43,2.43,0,0,1,2.33,3.09A.37.37,0,0,1,236.35,140.44ZM195.9,117.33,191,136a3,3,0,0,0,2.87,3.74H236a1.64,1.64,0,0,0-.32-1.19,1.68,1.68,0,0,0-1.34-.67H217.93a.37.37,0,0,1-.3-.14.38.38,0,0,1-.06-.33l5.09-19.81C212.55,117.38,197.86,117.19,195.9,117.33Z" fill="inherit"/></g><g id="change2_13"><path d="M257.7,117.36H157a6.94,6.94,0,0,1-6.84-8.15L159.71,55a6.94,6.94,0,0,1,6.84-5.74h99.11a6.94,6.94,0,0,1,6.87,8l-8,54.2A6.94,6.94,0,0,1,257.7,117.36Z" fill="#fff"/></g><g id="change1_19"><path d="M257.7,117.74H157a7.32,7.32,0,0,1-7.21-8.59L159.34,55a7.31,7.31,0,0,1,7.21-6.05h99.11a7.32,7.32,0,0,1,7.25,8.38l-8,54.2A7.36,7.36,0,0,1,257.7,117.74ZM166.55,49.65a6.55,6.55,0,0,0-6.47,5.43l-9.56,54.2A6.58,6.58,0,0,0,157,117H257.7a6.61,6.61,0,0,0,6.5-5.62l8-54.2a6.56,6.56,0,0,0-6.5-7.52Z" fill="inherit"/></g><g id="change2_14"><circle cx="208.95" cy="111.76" fill="#fff" r="2.79"/></g><g id="change1_20"><path d="M209,114.92a3.17,3.17,0,1,1,3.16-3.16A3.17,3.17,0,0,1,209,114.92Zm0-5.58a2.42,2.42,0,1,0,2.41,2.42A2.42,2.42,0,0,0,209,109.34Z" fill="inherit"/></g><g id="change1_21"><path d="M167.51,53.36a.93.93,0,1,1-.93-.93A.93.93,0,0,1,167.51,53.36Zm4.07-.93a.94.94,0,1,0,.93.93A.93.93,0,0,0,171.58,52.43Zm5,0a.94.94,0,1,0,.93.93A.93.93,0,0,0,176.59,52.43Z" fill="inherit"/></g><g id="change1_22"><path d="M272.63,58.36a.38.38,0,0,1-.37.38H198l-9.2,47.44,76.42.39a.38.38,0,0,1,0,.75h0l-114.41-.58a.39.39,0,0,1-.38-.38.4.4,0,0,1,.38-.37l37.24.19,9.19-47.44H159.33a.38.38,0,0,1-.38-.38.37.37,0,0,1,.38-.37H272.26A.37.37,0,0,1,272.63,58.36Z" fill="inherit"/></g><g id="change1_23"><path d="M191,66.2a.38.38,0,0,1-.38.38H164.72a.38.38,0,0,1,0-.75h25.86A.38.38,0,0,1,191,66.2Zm-4.29,20.65H160.81a.38.38,0,0,0,0,.75h25.86a.38.38,0,1,0,0-.75Zm2.42-15.26H174a.38.38,0,0,0-.37.38.37.37,0,0,0,.37.37h15.07a.37.37,0,0,0,.38-.37A.38.38,0,0,0,189.09,71.59Zm-.74,4.28H173.28a.38.38,0,0,0-.38.38.37.37,0,0,0,.38.37h15.07a.36.36,0,0,0,.37-.37A.37.37,0,0,0,188.35,75.87Zm-.56,4.1H172.72a.36.36,0,0,0-.37.37.37.37,0,0,0,.37.38h15.07a.38.38,0,0,0,.38-.38A.37.37,0,0,0,187.79,80ZM185,91.32H169.93a.37.37,0,0,0-.38.37.38.38,0,0,0,.38.38H185a.38.38,0,0,0,.38-.38A.37.37,0,0,0,185,91.32Zm-.74,4.27H169.19a.38.38,0,0,0-.38.38.37.37,0,0,0,.38.37h15.07a.37.37,0,0,0,.37-.37A.38.38,0,0,0,184.26,95.59Z" fill="inherit"/></g><g id="change1_24"><path d="M217.68,64.22c0,1.3-2.51,6.16-3.47,8.41s-4,1.91-7.75,2-5.59-.29-5.22-1.78,2.67-8.58,2.67-8.58C204.49,62.92,217.66,62.92,217.68,64.22Zm3.24,0s-2.29,7.09-2.67,8.58,1.43,1.84,5.22,1.78,6.78.28,7.75-2,3.49-7.11,3.47-8.41S221.5,62.92,220.92,64.23Zm17,0s-2.29,7.09-2.66,8.58,1.42,1.84,5.21,1.78,6.78.28,7.75-2,3.49-7.11,3.47-8.41S238.51,62.92,237.93,64.23Z" fill="inherit"/></g><g id="change1_25"><path d="M239.65,91.69a.37.37,0,0,1-.37.38H232a.38.38,0,0,1-.37-.38.37.37,0,0,1,.37-.37h7.26A.36.36,0,0,1,239.65,91.69ZM204,92.07h22.6a.38.38,0,0,0,.38-.38.37.37,0,0,0-.38-.37H204a.37.37,0,0,0-.38.37A.38.38,0,0,0,204,92.07Zm34.74,2.45h-35.3a.38.38,0,0,0-.38.38.37.37,0,0,0,.38.37h35.3a.37.37,0,0,0,.38-.37A.38.38,0,0,0,238.72,94.52Z" fill="inherit"/></g><g id="change3_4"><path d="M350.21,44.25l-9.49,32.09-72.84.56-4.74,4.74-.56-5.3h-3.35l7-32.09Z" fill="#db868e"/></g><g id="change1_26"><path d="M259.51,79l-.12,0a.37.37,0,0,1-.25-.32l-.52-5h-3a.4.4,0,0,1-.29-.14.37.37,0,0,1-.07-.32l7-32.09a.38.38,0,0,1,.37-.3h84a.38.38,0,0,1,.3.15.41.41,0,0,1,.06.34l-9.49,32.09a.36.36,0,0,1-.35.27l-72.69.55-4.63,4.64A.39.39,0,0,1,259.51,79Zm-3.44-6H259a.37.37,0,0,1,.38.33l.47,4.52L264,73.56a.4.4,0,0,1,.26-.1l72.56-.56,9.27-31.35h-83.2Z" fill="inherit"/></g><g id="change2_15"><path d="M291.14,49.5s0,0,0,0a.19.19,0,0,0,0-.1h0s0,0,0,0l0,0s-.05,0-.08-.06,0,0-.06,0l-.09,0h0L270.82,49h-.05a.34.34,0,0,0-.2.09h0s0,.05,0,.07a.23.23,0,0,0-.07.1L267.1,62.58a.37.37,0,0,0,.36.46h19.12a.38.38,0,0,0,.36-.26l4.18-13.11h0A.47.47,0,0,0,291.14,49.5Zm-1.75.42L278.54,56.2l-6.78-6.41Zm-3.08,12.37H268L271,50.12l7.21,6.82a.35.35,0,0,0,.26.1.34.34,0,0,0,.19,0l11.43-6.63Zm45.44-11.48a.38.38,0,0,1-.38.37H298.16a.38.38,0,0,1,0-.75h33.21A.38.38,0,0,1,331.75,50.81Zm-2.37,10.32a.38.38,0,0,1-.38.38H295.79a.38.38,0,0,1,0-.75H329A.38.38,0,0,1,329.38,61.13ZM331.05,56a.37.37,0,0,1-.38.37H312.12a.37.37,0,0,1-.38-.37.38.38,0,0,1,.38-.38h18.55A.38.38,0,0,1,331.05,56Zm-34,0a.38.38,0,0,1,.37-.38h10.05a.38.38,0,0,1,.38.38.37.37,0,0,1-.38.37H297.46A.37.37,0,0,1,297.09,56Z" fill="#fff"/></g><g id="change1_27"><path d="M343.15,85.74a.38.38,0,0,1-.38.37H302.21a.38.38,0,1,1,0-.75h40.56A.38.38,0,0,1,343.15,85.74Z" fill="inherit"/></g><g id="change2_16"><path d="M302.21,85.74A2.24,2.24,0,1,1,300,83.5,2.23,2.23,0,0,1,302.21,85.74ZM345,83.5a2.24,2.24,0,1,0,2.24,2.24A2.23,2.23,0,0,0,345,83.5Zm-22,0a2.24,2.24,0,1,0,2.23,2.24A2.23,2.23,0,0,0,323,83.5Z" fill="#fff"/></g><g id="change1_28"><path d="M353.26,89.14a.81.81,0,0,1-.56-1.24c1.86-2.94,7.12-11,8.82-11,2.08,0,7.34,12.41,6.31,13.45C367,91.17,356.82,89.69,353.26,89.14Z" fill="inherit"/></g><g id="change2_17"><path d="M360.44,84.87l.46-5.31a.38.38,0,0,1,.41-.34.37.37,0,0,1,.34.41l-.46,5.3a.37.37,0,0,1-.38.34h0A.37.37,0,0,1,360.44,84.87Zm.28,1.91a.82.82,0,1,0,.82.82A.82.82,0,0,0,360.72,86.78Z" fill="#fff"/></g><g id="change3_5"><path d="M154.27,27.63l-5.85,40.88a3.32,3.32,0,0,1-3.17,2.8l-81.76,0a2.35,2.35,0,0,1-2.37-2.79L67,27.61a3.32,3.32,0,0,1,3.17-2.79H151.9A2.36,2.36,0,0,1,154.27,27.63ZM254.9,3.18H180.67a3,3,0,0,0-2.88,2.53l-2.56,18a2.14,2.14,0,0,0,2.15,2.54l74.23,0a3,3,0,0,0,2.88-2.54l2.56-18A2.14,2.14,0,0,0,254.9,3.18Z" fill="#db868e"/></g><g id="change2_18"><path d="M254.6,126.47l42.75-.16a2.72,2.72,0,0,1,2.64,3.42l-8.22,30.64a2.72,2.72,0,0,1-2.63,2l-42.91-.16a2.72,2.72,0,0,1-2.61-3.45l8.37-30.3A2.72,2.72,0,0,1,254.6,126.47Z" fill="#fff"/></g><g id="change1_29"><path d="M289.15,162.75h0l-42.91-.16a3.09,3.09,0,0,1-3-3.92l8.37-30.3a3.08,3.08,0,0,1,3-2.27l42.76-.17h0a3.1,3.1,0,0,1,3,3.9l-8.21,30.63A3.1,3.1,0,0,1,289.15,162.75Zm8.21-36.07h0l-42.75.17a2.34,2.34,0,0,0-2.25,1.72h0L244,158.87a2.36,2.36,0,0,0,.39,2,2.33,2.33,0,0,0,1.86.93l42.91.16h0a2.33,2.33,0,0,0,2.26-1.73l8.21-30.64a2.31,2.31,0,0,0-.4-2A2.35,2.35,0,0,0,297.36,126.68ZM252,128.47h0Z" fill="inherit"/></g><g id="change1_30"><path d="M286.4,159.15H243.62a.38.38,0,0,1,0-.75H286.4a3.2,3.2,0,0,0,3.1-2.42L297,126.22a.36.36,0,0,1,.45-.27.37.37,0,0,1,.27.45l-7.48,29.76A4,4,0,0,1,286.4,159.15Z" fill="inherit"/></g><g id="change3_6"><path d="M256.94,128l34.16-.13a2.17,2.17,0,0,1,2.1,2.73l-6.56,24.48a2.17,2.17,0,0,1-2.1,1.61l-34.29-.13a2.17,2.17,0,0,1-2.08-2.75l6.68-24.22A2.16,2.16,0,0,1,256.94,128Z" fill="#db868e"/></g><g id="change1_31"><path d="M281.37,172.62H235.23a.38.38,0,0,1-.35-.24.4.4,0,0,1,.1-.41l11-10a.38.38,0,0,1,.53,0,.37.37,0,0,1,0,.53l-10.28,9.38h45L303.08,150l-4.76-15.22a.36.36,0,0,1,.24-.47.38.38,0,0,1,.47.24L303.87,150a.38.38,0,0,1-.09.38l-22.14,22.13A.39.39,0,0,1,281.37,172.62Z" fill="inherit"/></g><g id="change1_32"><path d="M259.79,126.86a.45.45,0,0,1-.19,0,.38.38,0,0,1-.13-.52l1.28-2.21a3,3,0,0,1,2.61-1.51h26.81a3,3,0,0,1,2.91,3.83.37.37,0,0,1-.46.26.38.38,0,0,1-.26-.47,2.27,2.27,0,0,0-2.19-2.87H263.36a2.26,2.26,0,0,0-2,1.13l-1.29,2.22A.37.37,0,0,1,259.79,126.86Z" fill="inherit"/></g><g id="change1_33"><path d="M263,175.79H250.49a.36.36,0,0,1-.33-.21.35.35,0,0,1,0-.38l2.23-3.17a.38.38,0,0,1,.53-.09.37.37,0,0,1,.09.52L251.21,175h11.55l1.93-2.82a.38.38,0,0,1,.62.43l-2.05,3A.36.36,0,0,1,263,175.79Z" fill="inherit"/></g><g id="change2_19"><path d="M260.21,136.81A2.8,2.8,0,1,1,263,134,2.79,2.79,0,0,1,260.21,136.81Zm0-4.84a2,2,0,1,0,2,2.05A2,2,0,0,0,260.21,132Zm23.44,13a2.8,2.8,0,1,1,2.8-2.8A2.8,2.8,0,0,1,283.65,145Zm0-4.84a2,2,0,1,0,2.05,2A2,2,0,0,0,283.65,140.16Zm-6.09-7.07a.38.38,0,0,0-.37-.38H264.91a.38.38,0,1,0,0,.75h12.28A.38.38,0,0,0,277.56,133.09Zm7.16,2.79a.37.37,0,0,0-.37-.38H264.53a.38.38,0,0,0,0,.75h19.82A.37.37,0,0,0,284.72,135.88ZM256.3,152.07a2.8,2.8,0,1,1,2.8-2.8A2.8,2.8,0,0,1,256.3,152.07Zm0-4.84a2,2,0,1,0,2.05,2A2,2,0,0,0,256.3,147.23Zm17.35,1.11a.36.36,0,0,0-.37-.37H261a.36.36,0,0,0-.37.37.37.37,0,0,0,.37.38h12.28A.37.37,0,0,0,273.65,148.34Zm7.17,2.79a.37.37,0,0,0-.38-.37H260.63a.37.37,0,0,0-.38.37.38.38,0,0,0,.38.38h19.81A.38.38,0,0,0,280.82,151.13Zm-1-8.09a.37.37,0,0,0-.37-.38H264.81a.38.38,0,0,0-.37.38.37.37,0,0,0,.37.37h14.61A.36.36,0,0,0,279.79,143Z" fill="#fff"/></g><g id="change1_34"><path d="M249.38,23.8H175.15a2.54,2.54,0,0,1-1.94-.86,2.57,2.57,0,0,1-.58-2.11l2.56-18A3.4,3.4,0,0,1,178.44,0h74.23a2.54,2.54,0,0,1,1.94.86A2.6,2.6,0,0,1,255.19,3l-2.56,18A3.41,3.41,0,0,1,249.38,23.8ZM178.44.75A2.64,2.64,0,0,0,175.93,3l-2.56,18a1.87,1.87,0,0,0,.41,1.52,1.79,1.79,0,0,0,1.37.6h74.23a2.65,2.65,0,0,0,2.51-2.22l2.56-17.95A1.91,1.91,0,0,0,254,1.36a1.79,1.79,0,0,0-1.37-.6ZM141.9,67.22H60.14a2.77,2.77,0,0,1-2.1-.93A2.83,2.83,0,0,1,57.4,64l5.85-40.89A3.72,3.72,0,0,1,66.8,20h81.75a2.74,2.74,0,0,1,2.11.93,2.82,2.82,0,0,1,.63,2.3L145.44,64.1A3.7,3.7,0,0,1,141.9,67.22ZM66.8,20.73A2.94,2.94,0,0,0,64,23.2L58.14,64.08a2.09,2.09,0,0,0,.46,1.7,2,2,0,0,0,1.54.68H141.9A2.94,2.94,0,0,0,144.7,64l5.85-40.89a2.1,2.1,0,0,0-.45-1.7,2,2,0,0,0-1.55-.67H66.8Z" fill="inherit"/></g><g id="change2_20"><path d="M193,11.65a6.21,6.21,0,0,1-5.91,5.12,4.28,4.28,0,0,1-4.33-5.12,6.2,6.2,0,0,1,5.91-5.13A4.28,4.28,0,0,1,193,11.65Zm49.28-3.71H202.37L202.08,10h39.8ZM231,13H201.66L201.37,15h29.29ZM83.18,32.82A5.26,5.26,0,0,0,82,28.51a5.13,5.13,0,0,0-4-1.76,7.22,7.22,0,0,0-6.88,6A5.26,5.26,0,0,0,72.3,37a5.16,5.16,0,0,0,4,1.76A7.21,7.21,0,0,0,83.18,32.82ZM81.47,29a4.53,4.53,0,0,1,1,3.71A6.45,6.45,0,0,1,76.3,38a4.42,4.42,0,0,1-3.43-1.5,4.53,4.53,0,0,1-1-3.71A6.45,6.45,0,0,1,78,27.5,4.42,4.42,0,0,1,81.47,29Zm-1.7,24.2a5.33,5.33,0,0,0-1.14-4.32,5.2,5.2,0,0,0-4-1.76,7.24,7.24,0,0,0-6.89,6,5.29,5.29,0,0,0,1.15,4.32,5.17,5.17,0,0,0,4,1.76A7.24,7.24,0,0,0,79.77,53.2Zm-1.71-3.83a4.57,4.57,0,0,1,1,3.71h0a6.46,6.46,0,0,1-6.14,5.33,4.42,4.42,0,0,1-3.43-1.5,4.51,4.51,0,0,1-1-3.71,6.44,6.44,0,0,1,6.14-5.33A4.45,4.45,0,0,1,78.06,49.37Zm59-20.69H93.16L92.84,31h43.83Zm-12.36,5.54H92.38l-.32,2.28h32.25ZM104.79,49.3H89.94l-.32,2.28h14.75ZM112,54.84H89.16l-.32,2.28h22.72Z" fill="#fff"/></g><g id="change3_7"><path d="M438.35,18.41v10.8a7.24,7.24,0,0,1-7.22,7.22H392.76l-8.68,8.68V18.41a7.24,7.24,0,0,1,7.22-7.22h39.83A7.24,7.24,0,0,1,438.35,18.41Z" fill="#db868e"/></g><g id="change1_35"><path d="M381.17,42.71c-.31-.31-.31-27-.31-27a7.54,7.54,0,0,1,7.53-7.54h39.83a7.54,7.54,0,0,1,7.53,7.54V26.49A7.53,7.53,0,0,1,428.22,34H390l-8.59,8.6A.36.36,0,0,1,381.17,42.71Zm7.22-33.93a6.92,6.92,0,0,0-6.91,6.92v26l8.15-8.16c.22-.09,38.59-.09,38.59-.09a6.92,6.92,0,0,0,6.91-6.91V15.7a6.92,6.92,0,0,0-6.91-6.92Z" fill="inherit"/></g><g id="change2_21"><path d="M396.15,20.81a3.61,3.61,0,1,1-3.61-3.61A3.61,3.61,0,0,1,396.15,20.81Zm12.16-3.61a3.61,3.61,0,1,0,3.6,3.61A3.61,3.61,0,0,0,408.31,17.2Zm16.39,0a3.61,3.61,0,1,0,3.6,3.61A3.61,3.61,0,0,0,424.7,17.2Z" fill="#fff"/></g><g id="change3_8"><path d="M186.7,14.19l-1.94-2.3,1-.88,1.13,1.29,3.42-3,.81,1Z" fill="#db868e"/></g><g id="change2_22"><path d="M170.21,261.78V265s12.7,5,11.72,7-22.88-.7-23.16-2,.42-8.24.42-8.24C165.6,264.57,170.21,261.78,170.21,261.78Z" fill="#fff"/></g><g id="change1_36"><path d="M177.68,273.05a96.11,96.11,0,0,1-10.06-.75c-6-.74-9.06-1.48-9.22-2.2-.28-1.28.34-7.63.41-8.35a.37.37,0,0,1,.19-.29.35.35,0,0,1,.33,0c6.15,2.67,10.64.05,10.68,0a.37.37,0,0,1,.38,0,.36.36,0,0,1,.19.32v3c1.88.75,10.88,4.45,11.7,6.61a.91.91,0,0,1,0,.79C181.92,272.82,180,273.05,177.68,273.05Zm-18.56-3.18c1.15.92,15.94,2.91,21.1,2.31,1.22-.14,1.37-.38,1.37-.38s0-.06,0-.18c-.57-1.49-7.19-4.57-11.51-6.28a.38.38,0,0,1-.24-.35V262.4a13,13,0,0,1-10.32-.08A58.61,58.61,0,0,0,159.12,269.87Zm0,.06h0Zm0-.08Z" fill="inherit"/></g><g id="change1_37"><path d="M197.4,152.81a1,1,0,0,0-.64-.61,3.52,3.52,0,0,0-2.13.24c.43-.75.79-1.7.34-2.27s-1.31-.48-2.07-.28a.76.76,0,0,0,0-.15c-.12-.58-.89-.75-1.45-.83-2-.25-6.32,2.09-8,3a1.7,1.7,0,0,0-.28-1,1.25,1.25,0,0,0-1-.5h-.05c-1.7,0-3.49,4.35-3.94,6.62s-3.17,3-3.2,3a.36.36,0,0,0-.23.17.38.38,0,0,0,0,.29l2.13,7.6a.36.36,0,0,0,.21.24.4.4,0,0,0,.15,0,.33.33,0,0,0,.17,0c.06,0,6.06-3,7.94-3.94,1.19-.57,4.06-2.11,5.23-4.16.88-1.54,2.28-2.17,3.88-2.78a5.44,5.44,0,0,0,2.78-2.77A2.54,2.54,0,0,0,197.4,152.81Zm-.86,1.65a4.73,4.73,0,0,1-2.36,2.37c-1.75.66-3.27,1.35-4.27,3.11a11.6,11.6,0,0,1-4.9,3.85c-1.61.78-6.16,3.05-7.55,3.75l-1.91-6.81a5,5,0,0,0,3.38-3.5c.55-2.73,2.3-6,3.2-6h0a.47.47,0,0,1,.42.19,1.61,1.61,0,0,1,.07,1.15.38.38,0,0,0,.14.4.38.38,0,0,0,.42,0c1.65-1,6.31-3.59,8.14-3.31a2.19,2.19,0,0,1,.81.21h0a1.44,1.44,0,0,1-.55.5,19,19,0,0,0-6.7,4.76.37.37,0,0,0,.28.62.34.34,0,0,0,.28-.13s3.06-3.4,6.44-4.56h0s0,0,0,0c.83-.39,2.18-.76,2.45-.41s-.34,1.5-1,2.39a24.09,24.09,0,0,0-5,3.24.38.38,0,0,0,0,.53.39.39,0,0,0,.28.13.38.38,0,0,0,.25-.09,23.11,23.11,0,0,1,4.88-3.17h0c.74-.4,2.15-1,2.74-.75a.34.34,0,0,1,.2.19A1.9,1.9,0,0,1,196.54,154.46Z" fill="inherit"/></g><g id="change1_38"><path d="M218.55,172.65l-.15,0a1.6,1.6,0,0,1-.78-1.24c-.35-2.15,1.72-7,13.52-18a.38.38,0,0,1,.53,0,.37.37,0,0,1,0,.53c-12.52,11.66-13.48,16-13.31,17.31a.92.92,0,0,0,.37.73.38.38,0,0,1,.17.5A.39.39,0,0,1,218.55,172.65Z" fill="inherit"/></g><g id="change2_23"><path d="M215.08,65.06a.38.38,0,0,1-.1.52l-5.39,3.6,2.49,3.11a.37.37,0,0,1-.06.53.32.32,0,0,1-.23.08.37.37,0,0,1-.29-.14L209,69.59l-4.59,3.06a.33.33,0,0,1-.21.07.37.37,0,0,1-.31-.17A.38.38,0,0,1,204,72l4.54-3-3-3.68a.38.38,0,0,1,.59-.47l3,3.74L214.56,65A.38.38,0,0,1,215.08,65.06Zm16.49-.1-5.44,3.63-3-3.74a.38.38,0,0,0-.59.47L225.5,69,221,72a.38.38,0,0,0-.1.52.37.37,0,0,0,.31.17.31.31,0,0,0,.21-.07L226,69.59l2.54,3.17a.38.38,0,0,0,.53.06.38.38,0,0,0,.05-.53l-2.49-3.12L232,65.58a.37.37,0,1,0-.42-.62Zm17.53.1a.38.38,0,0,0-.52-.1l-5.44,3.63-3-3.74a.38.38,0,1,0-.59.47L242.51,69,238,72a.38.38,0,0,0-.1.52.37.37,0,0,0,.31.17.33.33,0,0,0,.21-.07L243,69.59l2.54,3.17a.37.37,0,0,0,.29.14.32.32,0,0,0,.23-.08.37.37,0,0,0,.06-.53l-2.49-3.11,5.39-3.6A.38.38,0,0,0,249.1,65.06Z" fill="#fff"/></g><g id="change1_39"><path d="M202.7,82.91a.37.37,0,0,1,0,.53l-2,2.08,1.37,1.14a.38.38,0,0,1,0,.53.36.36,0,0,1-.29.13.38.38,0,0,1-.24-.09L200,85.84a.4.4,0,0,1-.14-.27.43.43,0,0,1,.11-.28l2.23-2.37A.38.38,0,0,1,202.7,82.91Zm3.33,0-2.23,2.37a.37.37,0,0,0-.1.28.4.4,0,0,0,.14.27l1.67,1.39a.37.37,0,1,0,.48-.57l-1.37-1.14,2-2.08a.37.37,0,0,0,0-.53A.38.38,0,0,0,206,82.92Zm4.69,2.37-2.23-2.37a.37.37,0,0,0-.53,0,.38.38,0,0,0,0,.53l2,2.08-1.37,1.14a.38.38,0,0,0-.05.53.39.39,0,0,0,.29.13.36.36,0,0,0,.24-.09l1.68-1.39a.39.39,0,0,0,.13-.27A.37.37,0,0,0,210.72,85.29Z" fill="inherit"/></g><g id="change1_40"><path d="M199.09,102.39a.38.38,0,0,1-.24-.09l-1.67-1.39a.4.4,0,0,1-.14-.27.42.42,0,0,1,.1-.28L199.38,98a.38.38,0,0,1,.53,0,.37.37,0,0,1,0,.53l-2,2.09,1.37,1.14a.38.38,0,0,1,0,.53A.39.39,0,0,1,199.09,102.39Zm3.39.1,2.38-3.91a.37.37,0,0,0-.13-.51.38.38,0,0,0-.52.12l-2.37,3.91a.38.38,0,0,0,.13.52.45.45,0,0,0,.19,0A.36.36,0,0,0,202.48,102.49Zm5.42-.19,1.67-1.39a.35.35,0,0,0,.13-.27.37.37,0,0,0-.1-.28L207.37,98a.38.38,0,1,0-.55.51l2,2.09-1.36,1.14a.38.38,0,0,0,0,.53.39.39,0,0,0,.29.13A.38.38,0,0,0,207.9,102.3Z" fill="inherit"/></g><g id="change1_41"><path d="M300,88.34a2.61,2.61,0,1,1,2.6-2.6A2.61,2.61,0,0,1,300,88.34Zm0-4.46a1.86,1.86,0,1,0,1.85,1.86A1.86,1.86,0,0,0,300,83.88Zm45,4.46a2.61,2.61,0,1,1,2.61-2.6A2.61,2.61,0,0,1,345,88.34Zm0-4.46a1.86,1.86,0,1,0,1.86,1.86A1.85,1.85,0,0,0,345,83.88Zm-22,4.46a2.61,2.61,0,1,1,2.61-2.6A2.61,2.61,0,0,1,323,88.34Zm0-4.46a1.86,1.86,0,1,0,1.86,1.86A1.86,1.86,0,0,0,323,83.88Z" fill="inherit"/></g><g id="change1_42"><path d="M421.81,49.35c-1.16-2.79-4.36-4.84-8.36-5.36-3.76-.48-8.84.43-11.84,4.41a.38.38,0,0,0,0,.48.38.38,0,0,0,.48.06c.06,0,5.91-3.68,13.73-.22a2.17,2.17,0,0,1,1.1,1.07,3.38,3.38,0,0,1-.08.83,6.93,6.93,0,0,1-2.29,3.3,3.61,3.61,0,0,0-1.47,3.29c.34,2,2.83,3.57,4,4.2-1.68.93-6.37,3.4-8.89,3.4h-.14a13,13,0,0,1-3.05-.57c-1.66-.45-3.22-.88-5.14,0-.21-.11-.78-.55-1-2.38a.37.37,0,0,0-.35-.33.34.34,0,0,0-.38.28c-.13.47-2.91,11.49,2.12,13.19a13.31,13.31,0,0,0,4,.55,15.11,15.11,0,0,0,8.74-2.62c3.36-2.4,5.17-6.3,5.26-11.27a7.17,7.17,0,0,0,4-3.48C423.44,55.87,423.27,52.9,421.81,49.35Zm-9.19,23a14.67,14.67,0,0,1-12.06,2c-3.33-1.11-2.56-7.59-2-10.66.5,1.28,1.24,1.38,1.35,1.39a.33.33,0,0,0,.19,0c1.73-.83,3.13-.45,4.75,0a14.05,14.05,0,0,0,3.23.6c2.71.1,7.76-2.57,9.47-3.53C417.4,66.64,415.74,70.1,412.62,72.32Zm9-14.48A6.49,6.49,0,0,1,418,61c-.66-.31-3.8-1.86-4.14-3.89a2.93,2.93,0,0,1,1.23-2.61,7.57,7.57,0,0,0,2.52-3.69,4,4,0,0,0,.1-1.08s0-.05,0-.08a2.88,2.88,0,0,0-1.54-1.6A17.52,17.52,0,0,0,409,46.45a15.26,15.26,0,0,0-5.48,1,12.62,12.62,0,0,1,9.86-2.71c3.73.48,6.7,2.35,7.75,4.89C422.49,53,422.66,55.73,421.62,57.84Z" fill="inherit"/></g></svg>